<?xml version="1.0" encoding="UTF-8"?>
<svg width="110px" height="37px" viewBox="0 0 110 37" version="1.1" xmlns="http://www.w3.org/2000/svg" xmlns:xlink="http://www.w3.org/1999/xlink">
    <!-- Generator: Sketch 53 (72520) - https://sketchapp.com -->
    <title>分组</title>
    <desc>Created with Sketch.</desc>
    <g id="Page-1" stroke="none" stroke-width="1" fill="none" fill-rule="evenodd" stroke-linecap="round">
        <g id="01首页" transform="translate(-47.000000, -35.000000)" stroke="#FFFFFF" stroke-width="4.26006">
            <g id="分组" transform="translate(50.000000, 38.000000)">
                <path d="M40.5072849,28.7645881 C38.6407112,30.7386278 36.1543865,31.8245086 33.243251,31.8245086 C27.5801534,31.8245086 22.9892271,27.1732768 22.9892271,21.4355285 C22.9892271,15.6977801 27.5801534,11.0463364 33.243251,11.0463364 C36.0749044,11.0463364 39.178261,12.5054093 40.4232012,14.0890914 C40.6955319,14.4788132 35.0207211,24.6889325 24.0383904,23.9431841" id="Stroke-1"></path>
                <path d="M60.87375,28.7645881 C59.0266285,30.7182834 56.5750249,31.7990781 53.6996564,31.8242967 C48.2568078,31.871555 43.6169373,27.4352106 43.3669871,21.9261245 C43.0963297,15.9652238 47.7859811,11.0463364 53.6097161,11.0463364 C56.4413695,11.0463364 59.0046663,12.2091444 60.8603635,14.0890914" id="Stroke-3"></path>
                <path d="M84.3478386,21.4354225 C84.3478386,27.1731709 79.7571215,31.8246146 74.0940239,31.8246146 C68.4307171,31.8246146 63.84,27.1731709 63.84,21.4354225 C63.84,15.6976742 68.4307171,11.0464424 74.0940239,11.0464424 C79.7571215,11.0464424 84.3478386,15.6976742 84.3478386,21.4354225 Z" id="Stroke-5"></path>
                <path d="M20.5377072,21.4354225 C20.5377072,27.1731709 15.94699,31.8246146 10.2838924,31.8246146 C4.62058566,31.8246146 0.0298685259,27.1731709 0.0298685259,21.4354225 C0.0298685259,15.6976742 4.62058566,11.0464424 10.2838924,11.0464424 C15.94699,11.0464424 20.5377072,15.6976742 20.5377072,21.4354225 Z" id="Stroke-7"></path>
                <path d="M104.832167,21.4354225 C104.832167,27.1731709 100.24145,31.8246146 94.5783526,31.8246146 C88.9150458,31.8246146 84.3243287,27.1731709 84.3243287,21.4354225 C84.3243287,15.6976742 88.9150458,11.0464424 94.5783526,11.0464424 C100.24145,11.0464424 104.832167,15.6976742 104.832167,21.4354225 Z" id="Stroke-9"></path>
                <path d="M20.5377072,0.0303258278 L20.5377072,21.4353589" id="Stroke-11"></path>
            </g>
        </g>
    </g>
</svg>